<svg xmlns="http://www.w3.org/2000/svg" width="560" height="300" viewBox="0 0 560 300">
  <defs>
    <linearGradient id="bg" x1="0" y1="0" x2="1" y2="0">
      <stop offset="0%" stop-color="#0ea5e9"/>
      <stop offset="100%" stop-color="#22c55e"/>
    </linearGradient>
    <filter id="shadow" x="-30%" y="-30%" width="160%" height="160%">
      <feDropShadow dx="0" dy="14" stdDeviation="18" flood-color="#000" flood-opacity="0.55"/>
    </filter>
  </defs>

  <rect x="40" y="45" rx="28" ry="28" width="480" height="210" fill="url(#bg)" filter="url(#shadow)"/>
  <path d="M68 75 C180 20, 380 20, 492 75 L492 105 C380 70, 180 70, 68 105 Z" fill="#fff" opacity="0.12"/>

  <text x="88" y="155" fill="#fff"
        font-family="ui-sans-serif, system-ui, -apple-system, Segoe UI, Roboto, Arial"
        font-size="96" font-weight="800" letter-spacing="-2">5:32</text>

  <text x="320" y="155" fill="#fff"
        font-family="ui-sans-serif, system-ui, -apple-system, Segoe UI, Roboto, Arial"
        font-size="28" font-weight="700" opacity="0.92">AM</text>

  <text x="92" y="200" fill="#fff"
        font-family="ui-sans-serif, system-ui, -apple-system, Segoe UI, Roboto, Arial"
        font-size="28" font-weight="600" opacity="0.95">Saturday, February 21st</text>

  <g transform="translate(458,78) scale(1.35)" fill="#fff" opacity="0.95">
    <path d="M6 .278a.768.768 0 0 1 .08.858 7.208 7.208 0 0 0-.878 3.46c0 4.021 3.278 7.277 7.318 7.277.527 0 1.04-.055 1.533-.16a.787.787 0 0 1 .81.316.733.733 0 0 1-.031.893A8.349 8.349 0 0 1 8.344 16C3.734 16 0 12.286 0 7.71 0 4.266 2.114 1.312 5.124.06A.752.752 0 0 1 6 .278z"/>
    <path d="M10.794 3.148a.217.217 0 0 1 .412 0l.387 1.162c.173.518.579.924 1.097 1.097l1.162.387a.217.217 0 0 1 0 .412l-1.162.387a1.734 1.734 0 0 0-1.097 1.097l-.387 1.162a.217.217 0 0 1-.412 0l-.387-1.162A1.734 1.734 0 0 0 9.31 6.593l-1.162-.387a.217.217 0 0 1 0-.412l1.162-.387a1.734 1.734 0 0 0 1.097-1.097l.387-1.162z"/>
  </g>

  <text x="92" y="235" fill="#fff" opacity="0.70"
        font-family="ui-sans-serif, system-ui, -apple-system, Segoe UI, Roboto, Arial"
        font-size="14">Auto-updated • America/New_York</text>
</svg>
